<?xml version="1.0" standalone="no"?>
<svg xmlns="http://www.w3.org/2000/svg" viewBox="0 0 143.03517 50.890625" width="143.03517" height="50.890625"><rect fill="none" stroke="#E4BAD4" stroke-width="3" width="140.03517" height="47.890625" x="1.5" y="1.5"></rect><g fill="#56077E" color="#56077E" transform="translate(11.999999999999993, 13.4453125) scale(0.24)"><svg width="75.433" height="100.0" x="0.0" y="0.0" viewBox="0 0 75.433 100"><path fill="currentColor" d="M8.431,8.148"></path><path fill="currentColor" d="M71.862,0H22.39c-1.965,0-5.181,0-7.145,0h-5.52C7.761,0,4.947,1.064,3.473,2.362L2.681,3.06  C1.206,4.36,0,7.031,0,8.995v2.727v0.593v84.113C0,98.392,1.608,100,3.572,100h62.132c1.967,0,3.572-1.608,3.572-3.572V11.722  c0-1.965-1.605-3.572-3.572-3.572H24.172c0-1.301-1.055-2.355-2.353-2.355s-2.35,1.054-2.35,2.355v0.923v23.594l-5.917-5.777  l-5.12,5.777V8.148h-4.86c-0.026,0-0.049,0.006-0.075,0.008L7.34,3.755h11.475h52.988V93.04h0.057c1.963,0,3.573-1.608,3.573-3.572  V3.573C75.434,1.607,73.826,0,71.862,0z"></path></svg></g><path fill="#56077E" fill-rule="nonzero" d="M7.73 12.28L7.73 12.28Q7.62 13.01 7.51 13.66Q7.41 14.32 7.38 14.72L7.38 14.72Q7.36 15.30 7.59 15.56Q7.83 15.82 8.11 15.82L8.11 15.82Q8.44 15.82 8.92 15.49Q9.40 15.16 9.94 14.67Q10.48 14.18 11.02 13.59Q11.55 13.01 12.01 12.48Q12.47 11.95 12.79 11.55Q13.10 11.16 13.22 11.04L13.22 11.04Q13.36 10.90 13.51 10.88Q13.66 10.85 13.76 10.92Q13.85 10.99 13.85 11.18Q13.85 11.37 13.66 11.65L13.66 11.65Q13.38 12.09 12.94 12.69Q12.49 13.29 11.95 13.92Q11.41 14.55 10.82 15.16Q10.22 15.77 9.62 16.24Q9.02 16.71 8.47 17.00Q7.92 17.30 7.48 17.30L7.48 17.30Q7.15 17.30 6.86 17.11Q6.56 16.92 6.33 16.62Q6.09 16.31 5.96 15.94Q5.84 15.56 5.86 15.19L5.86 15.19Q5.88 15.02 5.93 14.63L5.93 14.63Q4.95 15.73 3.95 16.37Q2.95 17.02 2.04 17.02L2.04 17.02Q1.71 17.02 1.34 16.85Q0.96 16.69 0.67 16.31Q0.38 15.94 0.19 15.33Q0 14.72 0.05 13.85L0.05 13.85Q0.12 12.49 0.59 11.27Q1.05 10.05 1.77 9.15Q2.48 8.25 3.39 7.72Q4.29 7.20 5.20 7.20L5.20 7.20Q5.60 7.20 5.93 7.39Q6.26 7.59 6.49 7.91Q6.73 8.23 6.88 8.60Q7.03 8.98 7.10 9.30L7.10 9.30Q7.27 8.63 7.41 7.97Q7.55 7.31 7.69 6.73L7.69 6.73Q7.92 5.86 8.18 4.85L8.18 4.85Q8.41 3.98 8.72 2.86Q9.02 1.73 9.40 0.49L9.40 0.49Q9.63 0.30 9.84 0.21Q10.05 0.12 10.24 0.07L10.24 0.07Q10.45 0 10.64 0L10.64 0Q10.88 0 11.06 0.06Q11.25 0.12 11.38 0.36Q11.51 0.61 11.55 1.10Q11.60 1.59 11.55 2.44L11.55 2.44Q11.51 3.47 11.19 4.69Q10.88 5.91 10.36 7.21Q9.84 8.51 9.18 9.81Q8.51 11.11 7.73 12.28ZM6.35 12.59L6.35 12.59Q6.45 12.14 6.53 11.70Q6.61 11.25 6.73 10.78L6.73 10.78Q6.68 10.80 6.64 10.83Q6.61 10.85 6.56 10.88L6.56 10.88Q6.30 10.99 6.21 10.86Q6.12 10.73 6.12 10.45L6.12 10.45Q6.12 10.31 6.09 9.95Q6.07 9.59 5.96 9.20Q5.86 8.81 5.65 8.52Q5.44 8.23 5.06 8.23L5.06 8.23Q4.52 8.23 3.96 8.78Q3.40 9.33 2.91 10.11Q2.41 10.90 2.09 11.79Q1.76 12.68 1.71 13.38L1.71 13.38Q1.66 14.51 1.99 15Q2.32 15.49 2.88 15.49L2.88 15.49Q3.30 15.49 3.81 15.16Q4.31 14.84 4.79 14.37Q5.27 13.90 5.68 13.41Q6.09 12.91 6.35 12.59ZM17.04 2.95L17.04 2.95Q16.97 3.21 16.77 3.46Q16.57 3.70 16.32 3.86Q16.08 4.01 15.82 4.05Q15.56 4.10 15.40 3.96L15.40 3.96Q14.91 3.59 14.88 3.15Q14.86 2.72 15.09 2.33Q15.33 1.95 15.68 1.68Q16.03 1.41 16.29 1.36L16.29 1.36Q16.55 1.31 16.72 1.46Q16.90 1.62 16.99 1.86Q17.09 2.11 17.10 2.41Q17.11 2.72 17.04 2.95ZM13.80 7.95L13.80 7.95Q13.92 7.80 14.25 7.71Q14.58 7.62 14.93 7.56Q15.28 7.50 15.57 7.49Q15.87 7.48 15.91 7.50L15.91 7.50Q15.94 7.52 15.80 7.99Q15.66 8.46 15.45 9.09Q15.23 9.73 15 10.39Q14.77 11.06 14.65 11.48L14.65 11.48Q14.53 11.91 14.37 12.43Q14.20 12.96 14.07 13.46Q13.95 13.97 13.90 14.41Q13.85 14.86 13.97 15.09L13.97 15.09Q14.09 15.38 14.23 15.48Q14.37 15.59 14.53 15.59L14.53 15.59Q15 15.59 15.71 15.07Q16.43 14.55 17.17 13.84Q17.91 13.13 18.54 12.39Q19.17 11.65 19.48 11.20L19.48 11.20Q19.66 10.97 19.86 10.90Q20.06 10.83 20.19 10.92Q20.32 11.02 20.33 11.23Q20.34 11.44 20.18 11.72L20.18 11.72Q19.80 12.38 19.08 13.28Q18.35 14.18 17.53 15.01Q16.71 15.84 15.93 16.43Q15.14 17.02 14.65 17.04L14.65 17.04Q14.25 17.06 13.86 16.91Q13.48 16.76 13.16 16.49Q12.84 16.22 12.63 15.86Q12.42 15.49 12.40 15.09L12.40 15.09Q12.33 14.51 12.40 13.49Q12.47 12.47 12.66 11.40Q12.84 10.34 13.14 9.38Q13.43 8.41 13.80 7.95ZM30.49 12.09L30.49 12.09Q30.16 12.56 29.65 13.25Q29.13 13.95 28.58 14.64Q28.03 15.33 27.50 15.90Q26.98 16.48 26.63 16.71L26.63 16.71Q26.39 16.85 26.09 16.95Q25.78 17.04 25.46 17.06Q25.15 17.09 24.87 17.03Q24.59 16.97 24.38 16.83L24.38 16.83Q24.16 16.66 24.02 16.36L24.02 16.36Q23.91 16.10 23.80 15.68Q23.70 15.26 23.72 14.63L23.72 14.63Q23.16 15.56 22.48 16.07Q21.80 16.57 21.19 16.80L21.19 16.80Q20.48 17.06 19.78 17.11L19.78 17.11Q19.45 17.11 19.08 16.89Q18.70 16.66 18.45 16.18Q18.19 15.70 18.12 14.94Q18.05 14.18 18.30 13.13L18.30 13.13Q18.63 11.70 19.35 10.52Q20.06 9.35 20.91 8.52Q21.75 7.69 22.57 7.27Q23.39 6.84 23.93 6.89L23.93 6.89Q24.56 7.01 24.96 7.27L24.96 7.27Q25.29 7.50 25.39 7.96Q25.50 8.41 25.01 9.16L25.01 9.16Q25.34 9.09 25.56 9.07Q25.78 9.05 25.90 9.05L25.90 9.05Q26.04 9.05 26.09 9.07L26.09 9.07Q26.11 9.12 26.11 9.27Q26.11 9.42 26.04 9.82Q25.97 10.22 25.83 10.90Q25.69 11.58 25.45 12.66L25.45 12.66Q25.41 12.87 25.37 13.04Q25.34 13.22 25.30 13.39Q25.27 13.57 25.22 13.80Q25.17 14.04 25.10 14.39L25.10 14.39Q25.08 14.60 25.09 14.85Q25.10 15.09 25.17 15.30Q25.24 15.52 25.39 15.64Q25.55 15.77 25.83 15.77L25.83 15.77Q26.06 15.77 26.44 15.48Q26.81 15.19 27.23 14.73Q27.66 14.27 28.11 13.72Q28.57 13.17 28.97 12.66Q29.37 12.14 29.68 11.74Q30 11.34 30.14 11.16L30.14 11.16Q30.33 10.95 30.52 10.91Q30.70 10.88 30.80 11.02Q30.89 11.16 30.83 11.44Q30.77 11.72 30.49 12.09ZM23.63 13.13L23.63 13.13Q23.74 12.66 23.91 12.02Q24.07 11.39 24.19 10.80Q24.30 10.22 24.36 9.83Q24.42 9.45 24.33 9.47L24.33 9.47Q24.21 9.49 24.07 9.54L24.07 9.54Q23.95 9.59 23.77 9.61Q23.58 9.63 23.39 9.68L23.39 9.68Q23.58 9.30 23.61 9.06Q23.65 8.81 23.63 8.67L23.63 8.67Q23.60 8.51 23.53 8.41L23.53 8.41Q23.27 8.20 22.63 8.75Q21.98 9.30 21.14 10.78L21.14 10.78Q20.79 11.39 20.58 12.08Q20.37 12.77 20.29 13.38Q20.20 13.99 20.25 14.45Q20.30 14.91 20.44 15.05L20.44 15.05Q20.70 15.30 21.02 15.29Q21.35 15.28 21.69 15.11Q22.03 14.93 22.37 14.65Q22.71 14.37 22.98 14.06Q23.25 13.76 23.43 13.50Q23.60 13.24 23.63 13.13ZM28.03 16.64L28.03 16.64Q27.87 16.90 27.67 16.98Q27.47 17.06 27.32 17.00Q27.16 16.95 27.12 16.76Q27.07 16.57 27.21 16.29L27.21 16.29Q27.28 16.15 27.53 15.66Q27.77 15.16 28.11 14.47Q28.45 13.78 28.85 12.97Q29.25 12.16 29.61 11.44Q29.98 10.71 30.28 10.14Q30.59 9.56 30.73 9.30L30.73 9.30Q30.47 9.07 30.38 8.96Q30.28 8.86 30.23 8.51L30.23 8.51Q30.19 8.20 30.38 7.71Q30.56 7.22 30.87 6.76Q31.17 6.30 31.55 5.98Q31.92 5.65 32.27 5.65L32.27 5.65Q32.93 5.65 33.20 6.07Q33.47 6.49 33.52 6.94L33.52 6.94Q33.56 7.24 33.47 7.71Q33.38 8.18 33.12 8.55L33.12 8.55Q33.19 8.60 33.30 8.66Q33.42 8.72 33.68 8.72L33.68 8.72Q34.05 8.72 34.21 8.67Q34.36 8.63 34.69 8.63L34.69 8.63Q35.09 8.63 35.34 8.82Q35.60 9.02 35.77 9.32Q35.93 9.61 36.01 9.95Q36.09 10.29 36.12 10.57L36.12 10.57Q36.19 11.16 35.81 11.79Q35.44 12.42 34.90 13.17L34.90 13.17Q34.57 13.64 34.24 14.23Q33.91 14.81 33.96 15.28L33.96 15.28Q34.01 15.59 34.13 15.77Q34.24 15.96 34.78 15.96L34.78 15.96Q35.18 15.96 35.66 15.67Q36.14 15.38 36.64 14.92Q37.15 14.46 37.64 13.91Q38.13 13.36 38.55 12.83Q38.98 12.30 39.27 11.88Q39.56 11.46 39.70 11.27L39.70 11.27Q39.82 11.09 40.01 11.02Q40.20 10.95 40.34 11.02Q40.48 11.09 40.51 11.30Q40.55 11.51 40.34 11.86L40.34 11.86Q40.20 12.09 39.86 12.61Q39.52 13.13 39.04 13.76Q38.55 14.39 37.97 15.06Q37.38 15.73 36.74 16.28Q36.09 16.83 35.45 17.18Q34.80 17.53 34.22 17.53L34.22 17.53Q33.61 17.53 33.21 17.30Q32.81 17.06 32.57 16.72Q32.32 16.38 32.21 15.97Q32.11 15.56 32.13 15.21L32.13 15.21Q32.16 14.93 32.29 14.61Q32.41 14.30 32.59 13.96Q32.77 13.62 32.96 13.28Q33.16 12.94 33.33 12.61L33.33 12.61Q33.73 11.93 33.97 11.45Q34.22 10.97 34.22 10.64L34.22 10.64Q34.22 10.43 34.13 10.27Q34.03 10.10 33.82 10.10L33.82 10.10Q33.68 10.10 33.62 10.11Q33.56 10.13 33.50 10.13Q33.45 10.13 33.34 10.14Q33.23 10.15 33.02 10.15L33.02 10.15Q32.72 10.15 32.51 10.05Q32.30 9.96 32.11 9.91L32.11 9.91Q32.02 10.08 31.69 10.62Q31.36 11.16 30.93 11.88Q30.49 12.61 30.01 13.41Q29.53 14.20 29.11 14.89Q28.69 15.59 28.39 16.07Q28.10 16.55 28.03 16.64ZM44.84 8.13L44.84 8.13Q45.14 7.90 45.43 7.77Q45.73 7.64 45.96 7.59L45.96 7.59Q46.22 7.52 46.48 7.55L46.48 7.55Q47.11 7.59 47.26 7.95Q47.41 8.30 47.30 9.07L47.30 9.07Q47.23 9.47 47.02 10.08Q46.80 10.69 46.52 11.57Q46.24 12.45 45.93 13.57Q45.61 14.70 45.33 16.10L45.33 16.10Q45.05 17.25 44.72 18.75L44.72 18.75Q44.44 20.06 44.05 21.91Q43.66 23.77 43.22 26.16L43.22 26.16Q43.10 26.74 42.71 26.84Q42.33 26.93 41.91 26.74L41.91 26.74Q41.74 26.65 41.60 26.53L41.60 26.53Q41.48 26.41 41.34 26.26Q41.20 26.11 41.11 25.85L41.11 25.85Q41.65 23.88 42.06 22.27Q42.47 20.65 42.80 19.45L42.80 19.45Q43.15 18.07 43.45 16.97L43.45 16.97Q43.57 16.48 43.68 16.00Q43.78 15.52 43.90 15.05L43.90 15.05Q43.59 15.54 43.24 15.98Q42.89 16.43 42.47 16.76Q42.05 17.09 41.57 17.26Q41.09 17.44 40.57 17.37L40.57 17.37Q39.30 17.20 38.78 16.43Q38.25 15.66 38.32 14.41L38.32 14.41Q38.34 13.92 38.46 13.34Q38.58 12.75 38.72 12.21Q38.86 11.67 38.99 11.24Q39.12 10.80 39.19 10.62L39.19 10.62Q39.47 9.73 39.60 9.09Q39.73 8.46 39.40 8.04L39.40 8.04Q39.73 7.83 40.02 7.75Q40.31 7.66 40.55 7.62L40.55 7.62Q40.80 7.59 41.06 7.62L41.06 7.62Q41.70 7.71 41.80 8.09Q41.91 8.46 41.72 9.21L41.72 9.21Q41.63 9.61 41.41 10.23Q41.20 10.85 40.97 11.51Q40.73 12.16 40.55 12.71Q40.36 13.27 40.34 13.50L40.34 13.50Q40.13 14.55 40.31 15.13Q40.50 15.70 41.13 15.70L41.13 15.70Q41.44 15.70 41.81 15.43Q42.19 15.16 42.57 14.72Q42.96 14.27 43.34 13.70Q43.71 13.13 44.03 12.54Q44.34 11.95 44.59 11.39Q44.84 10.83 44.95 10.38L44.95 10.38Q45.12 9.52 45.16 9.02Q45.21 8.53 44.84 8.13ZM67.17 12.09L67.17 12.09Q66.84 12.56 66.33 13.25Q65.81 13.95 65.26 14.64Q64.71 15.33 64.18 15.90Q63.66 16.48 63.30 16.71L63.30 16.71Q63.07 16.85 62.77 16.95Q62.46 17.04 62.14 17.06Q61.83 17.09 61.55 17.03Q61.27 16.97 61.05 16.83L61.05 16.83Q60.84 16.66 60.70 16.36L60.70 16.36Q60.59 16.10 60.48 15.68Q60.38 15.26 60.40 14.63L60.40 14.63Q59.84 15.56 59.16 16.07Q58.48 16.57 57.87 16.80L57.87 16.80Q57.16 17.06 56.46 17.11L56.46 17.11Q56.13 17.11 55.76 16.89Q55.38 16.66 55.13 16.18Q54.87 15.70 54.80 14.94Q54.73 14.18 54.98 13.13L54.98 13.13Q55.31 11.70 56.03 10.52Q56.74 9.35 57.59 8.52Q58.43 7.69 59.25 7.27Q60.07 6.84 60.61 6.89L60.61 6.89Q61.24 7.01 61.64 7.27L61.64 7.27Q61.97 7.50 62.07 7.96Q62.18 8.41 61.69 9.16L61.69 9.16Q62.02 9.09 62.24 9.07Q62.46 9.05 62.58 9.05L62.58 9.05Q62.72 9.05 62.77 9.07L62.77 9.07Q62.79 9.12 62.79 9.27Q62.79 9.42 62.72 9.82Q62.65 10.22 62.51 10.90Q62.37 11.58 62.13 12.66L62.13 12.66Q62.09 12.87 62.05 13.04Q62.02 13.22 61.98 13.39Q61.95 13.57 61.90 13.80Q61.85 14.04 61.78 14.39L61.78 14.39Q61.76 14.60 61.77 14.85Q61.78 15.09 61.85 15.30Q61.92 15.52 62.07 15.64Q62.23 15.77 62.51 15.77L62.51 15.77Q62.74 15.77 63.12 15.48Q63.49 15.19 63.91 14.73Q64.34 14.27 64.79 13.72Q65.25 13.17 65.65 12.66Q66.05 12.14 66.36 11.74Q66.68 11.34 66.82 11.16L66.82 11.16Q67.01 10.95 67.20 10.91Q67.38 10.88 67.48 11.02Q67.57 11.16 67.51 11.44Q67.45 11.72 67.17 12.09ZM60.30 13.13L60.30 13.13Q60.42 12.66 60.59 12.02Q60.75 11.39 60.87 10.80Q60.98 10.22 61.04 9.83Q61.10 9.45 61.01 9.47L61.01 9.47Q60.89 9.49 60.75 9.54L60.75 9.54Q60.63 9.59 60.45 9.61Q60.26 9.63 60.07 9.68L60.07 9.68Q60.26 9.30 60.29 9.06Q60.33 8.81 60.30 8.67L60.30 8.67Q60.28 8.51 60.21 8.41L60.21 8.41Q59.95 8.20 59.31 8.75Q58.66 9.30 57.82 10.78L57.82 10.78Q57.47 11.39 57.26 12.08Q57.05 12.77 56.96 13.38Q56.88 13.99 56.93 14.45Q56.98 14.91 57.12 15.05L57.12 15.05Q57.38 15.30 57.70 15.29Q58.03 15.28 58.37 15.11Q58.71 14.93 59.05 14.65Q59.39 14.37 59.66 14.06Q59.93 13.76 60.11 13.50Q60.28 13.24 60.30 13.13ZM63.91 26.77L63.91 26.77Q63.75 26.70 63.59 26.55L63.59 26.55Q63.45 26.44 63.30 26.26Q63.16 26.09 63.07 25.83L63.07 25.83Q63.73 23.32 64.18 21.47Q64.64 19.62 64.97 18.38L64.97 18.38Q65.32 16.92 65.58 15.94L65.58 15.94Q65.81 15 66.05 14.06L66.05 14.06Q66.23 13.24 66.46 12.30Q66.68 11.37 66.87 10.55L66.87 10.55Q67.10 9.63 67.15 9.08Q67.20 8.53 66.80 8.13L66.80 8.13Q67.08 7.90 67.37 7.77Q67.66 7.64 67.90 7.59L67.90 7.59Q68.16 7.52 68.41 7.55L68.41 7.55Q69.05 7.59 69.20 7.95Q69.35 8.30 69.23 9.07L69.23 9.07Q69.21 9.19 69.20 9.27Q69.19 9.35 69.19 9.45L69.19 9.45Q69.52 9.07 69.91 8.72Q70.31 8.37 70.72 8.09Q71.13 7.80 71.57 7.63Q72 7.45 72.40 7.45L72.40 7.45Q72.94 7.45 73.28 7.72Q73.62 7.99 73.80 8.44Q73.99 8.88 74.04 9.43Q74.09 9.98 74.06 10.52L74.06 10.52Q74.04 11.11 73.86 11.77Q73.69 12.42 73.38 13.10Q73.08 13.78 72.68 14.44Q72.28 15.09 71.84 15.66L71.84 15.66Q71.93 15.68 71.95 15.69Q71.98 15.70 71.98 15.71Q71.98 15.73 72.01 15.74Q72.05 15.75 72.16 15.75L72.16 15.75Q72.70 15.75 73.27 15.47Q73.83 15.19 74.37 14.75Q74.91 14.32 75.41 13.80Q75.91 13.29 76.32 12.81Q76.73 12.33 77.02 11.94Q77.30 11.55 77.44 11.39L77.44 11.39Q77.63 11.16 77.79 11.07Q77.95 10.99 78.05 11.06Q78.14 11.13 78.14 11.33Q78.14 11.53 78 11.84L78 11.84Q77.91 12.05 77.60 12.52Q77.30 12.98 76.85 13.57Q76.41 14.16 75.83 14.79Q75.26 15.42 74.63 15.94Q73.99 16.45 73.32 16.79Q72.66 17.13 72.02 17.13L72.02 17.13Q71.72 17.13 71.53 17.11Q71.34 17.09 71.21 17.03Q71.09 16.97 70.97 16.91Q70.85 16.85 70.69 16.78L70.69 16.78Q70.27 17.11 69.82 17.29Q69.38 17.46 68.95 17.46L68.95 17.46Q68.55 17.46 68.26 17.33Q67.97 17.20 67.78 16.98Q67.59 16.76 67.48 16.49Q67.36 16.22 67.29 15.96L67.29 15.96Q67.27 16.05 67.25 16.13Q67.24 16.20 67.22 16.31L67.22 16.31Q66.94 17.44 66.63 18.91L66.63 18.91Q66.38 20.18 66.01 22.00Q65.65 23.81 65.25 26.13L65.25 26.13Q65.11 26.77 64.75 26.86Q64.38 26.95 63.91 26.77ZM68.20 12.23L68.20 12.23Q68.09 12.63 67.96 13.16Q67.83 13.69 67.66 14.41L67.66 14.41Q67.85 14.27 68.09 14.20Q68.32 14.13 68.55 14.13L68.55 14.13Q68.81 14.13 69.21 14.40Q69.61 14.67 70.17 14.98L70.17 14.98Q70.52 14.55 70.91 14.03Q71.30 13.50 71.61 12.94Q71.93 12.38 72.15 11.79Q72.38 11.20 72.40 10.66L72.40 10.66Q72.45 9.96 72.23 9.56Q72.02 9.16 71.53 9.16L71.53 9.16Q70.80 9.16 69.95 10.02Q69.09 10.88 68.20 12.23ZM74.74 26.77L74.74 26.77Q74.58 26.70 74.41 26.55L74.41 26.55Q74.27 26.44 74.13 26.26Q73.99 26.09 73.90 25.83L73.90 25.83Q74.55 23.32 75.01 21.47Q75.47 19.62 75.80 18.38L75.80 18.38Q76.15 16.92 76.41 15.94L76.41 15.94Q76.64 15 76.88 14.06L76.88 14.06Q77.06 13.24 77.29 12.30Q77.51 11.37 77.70 10.55L77.70 10.55Q77.93 9.63 77.98 9.08Q78.02 8.53 77.63 8.13L77.63 8.13Q77.91 7.90 78.20 7.77Q78.49 7.64 78.73 7.59L78.73 7.59Q78.98 7.52 79.24 7.55L79.24 7.55Q79.88 7.59 80.03 7.95Q80.18 8.30 80.06 9.07L80.06 9.07Q80.04 9.19 80.03 9.27Q80.02 9.35 80.02 9.45L80.02 9.45Q80.34 9.07 80.74 8.72Q81.14 8.37 81.55 8.09Q81.96 7.80 82.39 7.63Q82.83 7.45 83.23 7.45L83.23 7.45Q83.77 7.45 84.11 7.72Q84.45 7.99 84.63 8.44Q84.82 8.88 84.87 9.43Q84.91 9.98 84.89 10.52L84.89 10.52Q84.87 11.11 84.69 11.77Q84.52 12.42 84.21 13.10Q83.91 13.78 83.51 14.44Q83.11 15.09 82.66 15.66L82.66 15.66Q82.76 15.68 82.78 15.69Q82.80 15.70 82.80 15.71Q82.80 15.73 82.84 15.74Q82.88 15.75 82.99 15.75L82.99 15.75Q83.53 15.75 84.09 15.47Q84.66 15.19 85.20 14.75Q85.73 14.32 86.24 13.80Q86.74 13.29 87.15 12.81Q87.56 12.33 87.84 11.94Q88.13 11.55 88.27 11.39L88.27 11.39Q88.45 11.16 88.62 11.07Q88.78 10.99 88.88 11.06Q88.97 11.13 88.97 11.33Q88.97 11.53 88.83 11.84L88.83 11.84Q88.73 12.05 88.43 12.52Q88.13 12.98 87.68 13.57Q87.23 14.16 86.66 14.79Q86.09 15.42 85.45 15.94Q84.82 16.45 84.15 16.79Q83.48 17.13 82.85 17.13L82.85 17.13Q82.55 17.13 82.36 17.11Q82.17 17.09 82.04 17.03Q81.91 16.97 81.80 16.91Q81.68 16.85 81.52 16.78L81.52 16.78Q81.09 17.11 80.65 17.29Q80.20 17.46 79.78 17.46L79.78 17.46Q79.38 17.46 79.09 17.33Q78.80 17.20 78.61 16.98Q78.42 16.76 78.30 16.49Q78.19 16.22 78.12 15.96L78.12 15.96Q78.09 16.05 78.08 16.13Q78.07 16.20 78.05 16.31L78.05 16.31Q77.77 17.44 77.46 18.91L77.46 18.91Q77.20 20.18 76.84 22.00Q76.48 23.81 76.08 26.13L76.08 26.13Q75.94 26.77 75.57 26.86Q75.21 26.95 74.74 26.77ZM79.03 12.23L79.03 12.23Q78.91 12.63 78.79 13.16Q78.66 13.69 78.49 14.41L78.49 14.41Q78.68 14.27 78.91 14.20Q79.15 14.13 79.38 14.13L79.38 14.13Q79.64 14.13 80.04 14.40Q80.44 14.67 81 14.98L81 14.98Q81.35 14.55 81.74 14.03Q82.13 13.50 82.44 12.94Q82.76 12.38 82.98 11.79Q83.20 11.20 83.23 10.66L83.23 10.66Q83.27 9.96 83.06 9.56Q82.85 9.16 82.36 9.16L82.36 9.16Q81.63 9.16 80.78 10.02Q79.92 10.88 79.03 12.23Z" transform="translate(42.103919999999995 17.06640625)"></path></svg>